<svg viewBox="0 0 64 64" xmlns="http://www.w3.org/2000/svg"><path d="m54.029 24.157c0-12.216-9.913-22.029-22.029-22.029s-22.029 9.913-22.029 22.029c0 8.411 5.107 15.821 12.016 19.525l-2.003 18.524 12.016-8.01 12.016 8.01-2.003-18.524c7.009-3.705 12.016-11.114 12.016-19.525zm-22.029 20.026c-11.114 0-20.026-9.012-20.026-20.026 0-11.114 9.012-20.026 20.026-20.026s20.026 9.012 20.026 20.026a19.957 19.957 0 0 1 -20.026 20.026zm9.012-28.237 3.004 3.004-13.518 13.518-7.51-7.51 3.004-3.004 4.506 4.506z" fill="#a6a6a6"/></svg>