<svg clip-rule="evenodd" fill-rule="evenodd" height="6.82666in" image-rendering="optimizeQuality" shape-rendering="geometricPrecision" text-rendering="geometricPrecision" viewBox="0 0 6.82666 6.82666" width="6.82666in" xmlns="http://www.w3.org/2000/svg"><path d="m2.73201 4.13919h3.13046v.273008h-3.13046z" fill="#414141"/><path d="m4.68291 4.00465c.117555 0 .223992.0476614.301043.124709.0770472.0770472.124709.183488.124709.301043 0 .117551-.0476614.223996-.124709.301043-.0770512.0770472-.183488.124709-.301043.124709-.117559 0-.223996-.0476654-.301047-.124709-.0770433-.0770472-.124709-.183492-.124709-.301043 0-.117555.0476654-.223996.124709-.301043.0770512-.0770433.183488-.124709.301047-.124709zm.167256.258496c-.0427953-.0427953-.101933-.0692677-.167256-.0692677-.0653228 0-.124465.0264724-.16726.0692677-.0427913.0427913-.0692677.101933-.0692677.167256 0 .0653228.0264764.124465.0692677.167256.0427953.0427953.101937.0692677.16726.0692677.0653228 0 .124461-.0264724.167256-.0692677.0427913-.0427913.0692717-.101933.0692717-.167256 0-.0653228-.0264803-.124465-.0692717-.167256z" fill="#202020" fill-rule="nonzero"/><path d="m4.68291 4.11962c.0858071 0 .163504.0347953.219744.0910315.0562402.0562402.0910315.133941.0910315.219748 0 .0858071-.0347913.163508-.0910315.219744-.0562402.0562402-.133937.0910315-.219744.0910315-.085811 0-.163504-.0347913-.219752-.0910315-.0562323-.0562362-.0910276-.133937-.0910276-.219744 0-.0858071.0347953-.163508.0910276-.219748.056248-.0562362.133941-.0910315.219752-.0910315zm.16726.143524c-.0427992-.0427953-.101937-.0692677-.16726-.0692677-.0653228 0-.124465.0264724-.16726.0692677-.0427913.0427913-.0692677.101933-.0692677.167256 0 .0653228.0264764.124461.0692677.167256.0427953.0427953.101937.0692677.16726.0692677.0653228 0 .124461-.0264724.16726-.0692677.0427913-.0427953.0692677-.101933.0692677-.167256 0-.0653228-.0264764-.124465-.0692677-.167256z" fill="#202020" fill-rule="nonzero"/><path d="m4.68291 4.11962c.0858071 0 .163504.0347953.219744.0910315.0562402.0562402.0910315.133941.0910315.219748 0 .0858071-.0347913.163508-.0910315.219744-.0562402.0562402-.133937.0910315-.219744.0910315-.085811 0-.163504-.0347913-.219752-.0910315-.0562323-.0562362-.0910276-.133937-.0910276-.219744 0-.0858071.0347953-.163508.0910276-.219748.056248-.0562362.133941-.0910315.219752-.0910315zm.16726.143524c-.0427992-.0427953-.101937-.0692677-.16726-.0692677-.0653228 0-.124465.0264724-.16726.0692677-.0427913.0427913-.0692677.101933-.0692677.167256 0 .0653228.0264764.124461.0692677.167256.0427953.0427953.101937.0692677.16726.0692677.0653228 0 .124461-.0264724.16726-.0692677.0427913-.0427953.0692677-.101933.0692677-.167256 0-.0653228-.0264764-.124465-.0692677-.167256z" fill="#323232" fill-rule="nonzero"/><path d="m4.85017 4.59765c.0427913-.0427953.0692677-.101933.0692677-.167256 0-.0653228-.0264764-.124465-.0692677-.167256-.0427992-.0427953-.101937-.0692677-.16726-.0692677-.0653228 0-.124465.0264724-.16726.0692677-.0427913.0427913-.0692677.101933-.0692677.167256 0 .0653228.0264764.124461.0692677.167256.0427953.0427953.101937.0692677.16726.0692677.0653228 0 .124461-.0264724.16726-.0692677z" fill="#bebebe"/><circle cx="4.68291" cy="4.4304" fill="#616161" r=".067554"/><circle cx="4.68291" cy="4.3273" fill="#414141" r=".016506"/><circle fill="#414141" r=".048957" transform="matrix(0 -.337144 .337144 0 4.57631 4.4339)"/><circle fill="#414141" r=".048957" transform="matrix(.238397 -.238397 .238397 .238397 4.60753 4.35852)"/><circle fill="#414141" r=".048957" transform="matrix(.238397 .238397 .238397 -.238397 4.60753 4.50927)"/><circle cx="4.68291" cy="4.5405" fill="#414141" r=".016506"/><circle fill="#414141" r=".048957" transform="matrix(0 -.337144 .337144 0 4.78951 4.4339)"/><circle fill="#414141" r=".048957" transform="matrix(.238397 -.238397 .238397 .238397 4.75829 4.50928)"/><circle fill="#414141" r=".048957" transform="matrix(.238397 .238397 .238397 -.238397 4.75829 4.35852)"/><path d="m1.44973 4.4303c0-.142622.0414764-.242142.134949-.335614.0934803-.0934685.214673-.13963.357299-.13963.142622 0 .237752.0311102.331228.124583.0934764.0934685.144012.208039.144012.350661 0 .0321024-.00292913.0635276-.00853543.0940118h.189091c.0300945-.207252-.0457638-.425346-.194831-.574413-.118697-.118693-.295496-.180051-.463398-.180051s-.368976.0735079-.487677.192197c-.141252.141252-.204776.362043-.175413.562268h.181815c-.0056063-.0304843-.00853937-.0619094-.00853937-.0940118z" fill="#4c4c4c"/><path d="m4.67935 3.94863c.180961-.00398819.328303.0855118.411142.219335h.204992c-.0343465-.0808976-.0839764-.155555-.146488-.218063-.118697-.118693-.2955-.180051-.463398-.180051-.167902 0-.368976.0735079-.487677.192197-.0576535.0576535-.102354.128563-.133079.205917h.205866c.083685-.129598.230732-.215417.408642-.219335z" fill="#a2a2a2"/><path d="m2.00846 2.58039h.633362.0946142v.0946142 1.75541.0946142h-.0946142-.193236l.0007126-.00396457.00032284-.00183858.00069685-.00414173.00051181-.00316929.00051969-.00337795.00032284-.00214173.00060236-.00425197.00023622-.00170472.00041339-.00315748.00018898-.00147244.00029528-.0023937.00047638-.00407087.00023228-.00204331.00034252-.00327559.00015354-.00148031.0001378-.00142126.00041732-.00449213.00009843-.00109055.0000315-.00038976.00000394-.00002362.00042126-.00526378.00011024-.00147638c.00012598-.00170472.00024409-.00340551.00035039-.00511024l.00003543-.00057087v-.0000315c.00012205-.00193701.00022441-.00386614.00032284-.00580709l.00006299-.00122835c.00009449-.0019252.00017323-.00384646.00024803-.00577559v-.00004331c.0000748-.00197244.00013386-.00395276.00018504-.00592913l.00001575-.0005315v-.00005512c.00004724-.00203543.00008661-.00407874.00011417-.00611811l.00000787-.00029921v-.00048425c.00002362-.002.00003543-.00399606.00003543-.00599606 0-.13839-.0545787-.270106-.152421-.367945-.0978386-.0978386-.229547-.152417-.367941-.152417s-.270098.0545787-.367945.152417c-.0978386.0978386-.152421.229555-.152421.367945 0 .002.00001575.00399606.00003543.00599606l.00000394.00048425.00000787.00029921c.00002756.00203937.00006299.00407874.00011417.00611811v.00005512l.00001575.0005315c.00004724.00197638.00011024.00395276.00018504.00592913v.00004331l.00024803.00577559.00006299.00122835.0003189.00580709.00000394.0000315.00003543.00057087.00035039.00511024.0001063.00147638.0004252.00526378v.00002362l.0000315.00038976.00009843.00109055.00042126.00449213.0001378.00142126.00014961.00148031.00034646.00327559.00023228.00204331.00047244.00407087.00029921.0023937.00018898.00147244.00041339.00315748.00023622.00170472.00060236.00425197.00032284.00214173.00051969.00337795.00050787.00316929.00070079.00414173.0003189.00183858.0007126.00396457h-.29435-.0946142v-.0946142-.877705c0-.267484.109362-.510587.285543-.686772.176185-.176181.419287-.285543.686772-.285543zm-.777354.877701h1.31611v-.688472h-.538752c-.215252 0-.411008.088126-.552984.230102-.120866.12087-.202705.280709-.22437.45837z" fill="#757575" fill-rule="nonzero"/><path d="m2.73739 4.16757v-2.19706h3.12784v2.19745h-.733217c-.0223071-.0381417-.0495906-.073622-.0814764-.105512-.0978386-.0978346-.229555-.152413-.367945-.152413s-.270106.0545787-.367949.152413c-.0318819.0318858-.0591732.0673701-.0814764.105512h-1.4936l-.00217717-.0003937z" fill="#cbcbcc" fill-rule="nonzero"/><path d="m2.94238 3.96297h1.18554c.0132677-.0157283.0272047-.0309016.0417756-.0454685.13628-.13628.320161-.212453.512894-.212453.192728 0 .376614.0761732.51289.212453.0145709.0145709.0285079.0297402.0417756.0454685h.422984v-1.78747h-2.71786v1.78747z" fill="#bbbbbc"/><path d="m1.23111 3.45809h1.31611v-.688472h-.538752c-.215252 0-.411008.0881299-.55298.230102-.12087.12087-.202709.280709-.224374.45837z" fill="#b6b6b6"/><path d="m1.67769 3.45809h.11304l.4098-.45988z" fill="#d7d7d7"/><path d="m2.54722 2.79886v-.02925h-.07818l-.40393.4533z" fill="#d7d7d7"/><path d="m2.31431 3.65667h.180079c.0144764 0 .0263189-.0118425.0263189-.0263189v-.0263228h-.232717v.0263228c0 .0144764.0118425.0263189.0263189.0263189z" fill="#494949"/><path d="m2.30707 3.53026h.190181c.0220197 0 .0400354.0180157.0400354.0400354v.0400433h-.270252v-.0400433c0-.0220197.0180157-.0400354.0400354-.0400354z" fill="#202020"/><path d="m.929398 4.28009h.164157c.0187205 0 .0340315.0153071.0340315.0340315v.194185c0 .019815-.0162126.0360315-.0360315.0360315h-.174165c-.0352362 0-.0640591-.0288228-.0640591-.0640591v-.124122c0-.0418386.0342283-.0760669.0760669-.0760669z" fill="#202020"/><path d="m1.93685 4.00465c.117555 0 .223992.0476614.301047.124709.0770433.0770472.124705.183488.124705.301043 0 .117551-.0476614.223996-.124705.301043-.0770551.0770472-.183492.124709-.301047.124709s-.223996-.0476654-.301047-.124709c-.0770433-.0770472-.124709-.183492-.124709-.301043 0-.117555.0476654-.223996.124709-.301043.0770512-.0770433.183492-.124709.301047-.124709zm.16726.258496c-.0427953-.0427953-.101933-.0692677-.16726-.0692677-.0653228 0-.124465.0264724-.16726.0692677-.0427913.0427913-.0692677.101933-.0692677.167256 0 .0653228.0264764.124465.0692677.167256.0427953.0427953.101937.0692677.16726.0692677.0653268 0 .124465-.0264724.16726-.0692677.0427913-.0427913.0692677-.101933.0692677-.167256 0-.0653228-.0264764-.124465-.0692677-.167256z" fill="#202020" fill-rule="nonzero"/><path d="m1.93685 4.11962c.0858071 0 .163504.0347953.219744.0910315.0562402.0562402.0910315.133941.0910315.219748 0 .0858071-.0347913.163508-.0910315.219744-.0562402.0562402-.133937.0910315-.219744.0910315-.085811 0-.163504-.0347913-.219752-.0910315-.0562323-.0562362-.0910276-.133937-.0910276-.219744 0-.0858071.0347953-.163508.0910276-.219748.056248-.0562362.133941-.0910315.219752-.0910315zm.16726.143524c-.0427992-.0427953-.101933-.0692677-.16726-.0692677-.0653228 0-.124465.0264724-.16726.0692677-.0427913.0427913-.0692677.101933-.0692677.167256 0 .0653228.0264764.124461.0692677.167256.0427953.0427953.101937.0692677.16726.0692677.0653268 0 .124461-.0264724.16726-.0692677.0427913-.0427953.0692677-.101933.0692677-.167256 0-.0653228-.0264764-.124465-.0692677-.167256z" fill="#202020" fill-rule="nonzero"/><path d="m1.93685 4.11962c.0858071 0 .163504.0347953.219744.0910315.0562402.0562402.0910315.133941.0910315.219748 0 .0858071-.0347913.163508-.0910315.219744-.0562402.0562402-.133937.0910315-.219744.0910315-.085811 0-.163504-.0347913-.219752-.0910315-.0562323-.0562362-.0910276-.133937-.0910276-.219744 0-.0858071.0347953-.163508.0910276-.219748.056248-.0562362.133941-.0910315.219752-.0910315zm.16726.143524c-.0427992-.0427953-.101933-.0692677-.16726-.0692677-.0653228 0-.124465.0264724-.16726.0692677-.0427913.0427913-.0692677.101933-.0692677.167256 0 .0653228.0264764.124461.0692677.167256.0427953.0427953.101937.0692677.16726.0692677.0653268 0 .124461-.0264724.16726-.0692677.0427913-.0427953.0692677-.101933.0692677-.167256 0-.0653228-.0264764-.124465-.0692677-.167256z" fill="#323232" fill-rule="nonzero"/><path d="m2.10411 4.59765c.0427913-.0427953.0692677-.101933.0692677-.167256 0-.0653228-.0264764-.124465-.0692677-.167256-.0427992-.0427953-.101933-.0692677-.16726-.0692677-.0653228 0-.124465.0264724-.16726.0692677-.0427913.0427913-.0692677.101933-.0692677.167256 0 .0653228.0264764.124461.0692677.167256.0427953.0427953.101937.0692677.16726.0692677.0653268 0 .124461-.0264724.16726-.0692677z" fill="#bebebe"/><circle cx="1.93685" cy="4.4304" fill="#616161" r=".067554"/><circle cx="1.93685" cy="4.3273" fill="#414141" r=".016506"/><circle fill="#414141" r=".048957" transform="matrix(0 -.337144 .337144 0 1.83026 4.4339)"/><circle fill="#414141" r=".048957" transform="matrix(.238397 -.238397 .238397 .238397 1.86148 4.35852)"/><circle fill="#414141" r=".048957" transform="matrix(.238397 .238397 .238397 -.238397 1.86148 4.50927)"/><circle cx="1.93685" cy="4.5405" fill="#414141" r=".016506"/><circle fill="#414141" r=".048957" transform="matrix(0 -.337144 .337144 0 2.04346 4.4339)"/><circle fill="#414141" r=".048957" transform="matrix(.238397 -.238397 .238397 .238397 2.01223 4.50928)"/><circle fill="#414141" r=".048957" transform="matrix(.238397 .238397 .238397 -.238397 2.01223 4.35852)"/><path d="m3.24964 4.2184h.058213v.025494h-.058213z" fill="#525252"/><path d="m3.24007 4.21124h.077366v.008168h-.077366z" fill="#454545"/><rect fill="#757575" height=".298615" rx=".040059" width=".580848" x="2.79759" y="4.23369"/><path d="m5.89726 4.15197h-.164157c-.0187205 0-.0340315.015311-.0340315.0340315v.194185c0 .0198189.0162126.0360315.0360315.0360315h.174165c.0352362 0 .0640591-.0288228.0640591-.0640591v-.124122c0-.0418386-.0342283-.0760669-.0760669-.0760669z" fill="#202020"/><path d="m1.24499 3.3818c-.0310197.0142244-.0562638.033122-.0726535.0577559-.0147638.0221969-.0224449.0492835-.0208071.0820906l-.0165984.00077953c-.00182677-.0365866.00685827-.0669724.0235394-.0920512.0182165-.0273819.0458583-.0481969.079622-.0636772l.00689764.0151024z" fill="#202020" fill-rule="nonzero"/><path d="m1.25848 3.18609h.0252992c.0100787 0 .0183228.00824409.0183228.0183228v.280205c0 .00912205-.00745669.0165787-.0165787.0165787h-.0270433c-.0239921 0-.043622-.0196299-.043622-.043622v-.227862c0-.0239921.0196299-.043622.043622-.043622z" fill="#414141"/><ellipse cx="1.14167" cy="3.51911" fill="#202020" rx=".038158" ry=".019849"/><g fill="#cbcbcc"><path d="m3.05592 2.15709h.104406v1.81964h-.104406z"/><path d="m3.29456 2.15709h.104406v1.81964h-.104406z"/><path d="m3.53319 2.15709h.104406v1.81964h-.104406z"/><path d="m3.77183 2.15709h.104406v1.81964h-.104406z"/><path d="m4.01047 2.15709h.104406v1.81964h-.104406z"/><path d="m4.24911 2.15709h.104406v1.81964h-.104406z"/><path d="m4.48774 2.15709h.104406v1.71523h-.104406z"/><path d="m4.72638 2.15709h.104406v1.68913h-.104406z"/><path d="m4.96502 2.15709h.104406v1.81964h-.104406z"/><path d="m5.20366 2.15709h.104406v1.81964h-.104406z"/><path d="m5.4423 2.15709h.104406v1.81964h-.104406z"/></g><path d="m0 0h6.82666v6.82666h-6.82666z" fill="none"/></svg>