<svg fill="none" height="20" viewBox="0 0 28 22" width="20" xmlns="http://www.w3.org/2000/svg"><g fill="#737373"><path d="m13.0002 2c-2.7615 0-5.00005 2.23858-5.00005 5 0 .55228.44772 1 1 1 .55229 0 1.00005-.44772 1.00005-1 0-1.65685 1.3431-3 3-3h4c1.6568 0 3 1.34315 3 3v10c0 1.6569-1.3432 3-3 3h-4c-1.6569 0-3-1.3431-3-3 0-.5523-.44776-1-1.00005-1-.55228 0-1 .4477-1 1 0 2.7614 2.23855 5 5.00005 5h4c2.7614 0 5-2.2386 5-5v-10c0-2.76142-2.2386-5-5-5z"/><path d="m14.0002 11c.5522 0 1 .4477 1 1s-.4478 1-1 1z"/><path d="m5.71807 11c.08902-.1098.17432-.2163.255-.318.24548-.3097.45332-.5816.60008-.77651.07345-.09754.13177-.17603.17205-.23057l.04656-.0633.01249-.01708.00441-.00606c.00004-.00006.00051-.0007-.80851-.58848l.80851.58848c.32463-.44681.22608-1.07287-.22073-1.3975-.44678-.32461-1.07211-.22558-1.39675.22117l-.00282.00387-.01023.014-.04176.05677c-.03695.05003-.09157.12354-.16097.21571-.13893.18452-.33642.44292-.56949.73687-.47124.59433-1.06808 1.30873-1.61287 1.85353l-.7071.7071.7071.7071c.54479.5448 1.14163 1.2592 1.61287 1.8535.23307.294.43056.5524.56949.7369.0694.0922.12402.1657.16097.2157l.04176.0568.01023.014.00234.0032c.32464.4467.95045.5464 1.39723.2218.44681-.3246.54586-.95.22124-1.3968l-.80902.5878c.80902-.5878.80906-.5877.80902-.5878l-.00492-.0067-.01249-.0171-.04656-.0633c-.04028-.0546-.0986-.133-.17205-.2306-.14676-.1949-.3546-.4668-.60008-.7765-.08068-.1017-.16598-.2082-.255-.318h8.28213v-2z"/></g></svg>