<svg height="20" viewBox="0 0 20 20" width="20" xmlns="http://www.w3.org/2000/svg"><path d="m14.5 10c2.4853 0 4.5 2.0147 4.5 4.5s-2.0147 4.5-4.5 4.5-4.5-2.0147-4.5-4.5 2.0147-4.5 4.5-4.5zm-.25-7c1.4625481 0 2.6584055 1.14170743 2.7449813 2.58247798l.0050187.16752202v3.84971c-.3724-.190384-.769376-.3395584-1.1849376-.4415072l-.3150624-.0675128v-3.34069c0-.6472125-.4918359-1.17953437-1.1221875-1.24354644l-.1278125-.00645356h-8.5c-.6472125 0-1.17953437.49187109-1.24354644 1.12219409l-.00645356.12780591v8.5c0 .64725.49187109 1.1795391 1.12219409 1.2435469l.12780591.0064531h3.34069c.07796.42448.2046496.831872.3740528 1.2161856l.1349672.2838144h-3.84971c-1.46252889 0-2.65840406-1.1416889-2.74498119-2.5824759l-.00501881-.1675241v-8.5c0-1.46252889 1.14170743-2.65840406 2.58247798-2.74498119l.16752202-.00501881zm.25 9c-.2454222 0-.4496.1769086-.4919429.4101355l-.0080571.0898645v1.5h-1.5c-.2761 0-.5.2239-.5.5 0 .2454222.1769086.4496.4101355.4919429l.0898645.0080571h1.5v1.5c0 .2761.2239.5.5.5.2454222 0 .4496-.1769086.4919429-.4101355l.0080571-.0898645v-1.5h1.5c.2761 0 .5-.2239.5-.5 0-.2454222-.1769086-.4496-.4101355-.4919429l-.0898645-.0080571h-1.5v-1.5c0-.2761-.2239-.5-.5-.5z" fill="#212121"/></svg>