<svg height="24" viewBox="0 0 24 24" width="24" xmlns="http://www.w3.org/2000/svg">
<g fill="none">
<path d="m0 0h24v24h-24z"/>
<path d="m15 4c1.1046 0 2 .89543 2 2v1h1.5194c.6075 0 1.1822.27618 1.5617.75061l1.4806 1.85079c.2837.3546.4383.7952.4383 1.2494v4.1492c0 1.1046-.8954 2-2 2 0 1.6569-1.3431 3-3 3s-3-1.3431-3-3h-4c0 1.6569-1.34315 3-3 3s-3-1.3431-3-3c-1.10457 0-2-.8954-2-2v-9c0-1.10457.89543-2 2-2zm-8 12c-.55228 0-1 .4477-1 1s.44772 1 1 1 1-.4477 1-1-.44772-1-1-1zm10 0c-.5523 0-1 .4477-1 1s.4477 1 1 1 1-.4477 1-1-.4477-1-1-1zm-2-10h-11v9h.76389c.54932-.6137 1.34761-1 2.23611-1 .82015385 0 1.56344237.329155 2.10499652.8624859l.13111348.1375141h5.52779l.1147875-.1213125.1213125-.1147875zm3.5194 3h-1.5194v5c.8201538 0 1.5634509.329155 2.1049906.8624859l.1311094.1375141h.7639v-4.1492z" fill="#09244b"/>
</g>
</svg>